# xmcd
#
# Track frame offsets: 
#        150
#        19539
#        48653
#        61448
#        75675
#        95227
#        106705
#        119556
#        132292
#        148639
#        160217
#        178265
#        192340
#        212765
#        225777
#        242460
#        258790
#        273150
#        286371
#        301024
#
# Disc length: 4197 seconds
#
# Revision: 0
# Processed by: cddbd v1.5.2PL0 Copyright (c) Steve Scherf et al.
# Submitted via: ExactAudioCopy v0.99pb4
#
DISCID=12106314
DTITLE=Various Artist - 100 Instrumentale Klassiekers - Disk 2
DYEAR=2008
DGENRE=Instrumental
TTITLE0=Massada - Arumbai
TTITLE1=Vangelis - To The Unknown Man
TTITLE2=Van Lukas - The Waltz
TTITLE3=Jean-Michel Jarre - Oxygène (Part 1)
TTITLE4=Space - Magic Fly
TTITLE5=Apollo 100 - Joy
TTITLE6=Ekseption - Air
TTITLE7=Mike Oldfield - In Dulci Jubilo
TTITLE8=Urban Trad - Vodka Time
TTITLE9=Electronica's - De Vogeltjesdans
TTITLE10=James Last and His Orchestra - Biscaya
TTITLE11=Fleetwood Mac - Albatross
TTITLE12=Santana - Samba Pa Ti
TTITLE13=Booker T and The MG's - Green Onions
TTITLE14=Duke Ellington - Take The "A" Train
TTITLE15=Glenn Miller - In The Mood
TTITLE16=Henry Mancini and His Orchestra - The Pink Panther Theme
TTITLE17=Acker Bilk - Stranger On The Shore
TTITLE18=Django Reinhardt - Nuages
TTITLE19=Mantovani and His Orchestra - Charmaine
EXTD=
EXTT0=
EXTT1=
EXTT2=
EXTT3=
EXTT4=
EXTT5=
EXTT6=
EXTT7=
EXTT8=
EXTT9=
EXTT10=
EXTT11=
EXTT12=
EXTT13=
EXTT14=
EXTT15=
EXTT16=
EXTT17=
EXTT18=
EXTT19=
PLAYORDER=
